<?xml version="1.0" encoding="UTF-8" standalone="no"?>
<!-- Created with Inkscape (http://www.inkscape.org/) -->

<svg
   xmlns:dc="http://purl.org/dc/elements/1.1/"
   xmlns:cc="http://creativecommons.org/ns#"
   xmlns:rdf="http://www.w3.org/1999/02/22-rdf-syntax-ns#"
   xmlns:svg="http://www.w3.org/2000/svg"
   xmlns="http://www.w3.org/2000/svg"
   xmlns:sodipodi="http://sodipodi.sourceforge.net/DTD/sodipodi-0.dtd"
   xmlns:inkscape="http://www.inkscape.org/namespaces/inkscape"
   width="744.09448819"
   height="1052.3622047"
   id="svg2"
   sodipodi:version="0.32"
   inkscape:version="0.92.2 5c3e80d, 2017-08-06"
   sodipodi:modified="true"
   version="1.1"
   sodipodi:docname="Man.svg">
  <defs
     id="defs4" />
  <sodipodi:namedview
     id="base"
     pagecolor="#ffffff"
     bordercolor="#666666"
     borderopacity="1.0"
     gridtolerance="10000"
     guidetolerance="10"
     objecttolerance="10"
     inkscape:pageopacity="0.0"
     inkscape:pageshadow="2"
     inkscape:zoom="0.8229106"
     inkscape:cx="155.74185"
     inkscape:cy="526.18109"
     inkscape:document-units="px"
     inkscape:current-layer="layer1"
     inkscape:window-width="1920"
     inkscape:window-height="1061"
     inkscape:window-x="0"
     inkscape:window-y="19"
     showgrid="false"
     inkscape:window-maximized="0" />
  <metadata
     id="metadata7">
    <rdf:RDF>
      <cc:Work
         rdf:about="">
        <dc:format>image/svg+xml</dc:format>
        <dc:type
           rdf:resource="http://purl.org/dc/dcmitype/StillImage" />
      </cc:Work>
    </rdf:RDF>
  </metadata>
  <g
     inkscape:label="Layer 1"
     inkscape:groupmode="layer"
     id="layer1">
    <path
       style="fill:#000000"
       d="M 302.07468,1018.9879 C 286.25571,1013.7975 273.72731,1002.1224 270.14882,989.23628 C 268.72288,984.1015 268.04339,879.0565 268.03581,662.57732 L 268.02464,343.48701 L 260.00981,343.48701 L 251.99498,343.48701 L 251.99498,463.93754 C 251.99498,582.0174 251.91344,584.53145 247.85195,591.67385 C 242.59122,600.92516 236.68341,605.26002 225.12128,608.3524 C 208.02752,612.9243 189.33348,604.19421 182.62031,588.50452 C 178.30101,578.40967 178.58231,309.1661 182.92959,292.47574 C 192.72875,254.85424 224.46236,224.03277 261.4729,216.19007 C 280.96898,212.05877 461.22336,212.00781 480.66203,216.12811 C 500.46216,220.32503 517.4686,229.81823 532.51666,245.07399 C 547.995,260.76598 555.2203,273.49531 560.60963,294.56739 C 564.3661,309.255 564.57327,317.12085 564.57327,445.05908 C 564.57327,562.00859 564.1613,581.03909 561.49128,587.42934 C 557.33972,597.36544 553.06762,601.83388 543.53434,606.21158 C 527.71428,613.47618 507.6073,608.80266 498.25271,595.68663 L 493.44167,588.94109 L 492.89594,466.21405 L 492.35019,343.48701 L 484.38018,343.48701 L 476.41016,343.48701 L 476.41016,664.14446 C 476.41016,1015.6449 477.20541,992.30562 464.78255,1005.3947 C 454.96943,1015.734 444.96244,1019.6452 428.32119,1019.6452 C 411.67995,1019.6452 401.67295,1015.734 391.85984,1005.3947 C 379.6788,992.56041 380.23223,1002.5082 380.23223,796.3891 L 380.23223,607.97631 L 372.2174,607.97631 L 364.20257,607.97631 L 364.20257,796.3891 C 364.20257,949.93319 363.70254,985.99515 361.50065,991.24959 C 357.46396,1000.8825 348.6824,1010.38 339.46404,1015.0829 C 330.57932,1019.6155 310.40822,1021.7222 302.07468,1018.9879 z M 347.1449,193.72648 C 322.92259,185.07506 307.9519,171.7394 297.35531,149.37467 C 291.49021,136.996 291.06727,134.61803 291.06727,114.02045 C 291.06727,93.178545 291.43138,91.197919 297.54651,78.776333 C 328.09011,16.733472 416.2698,16.581356 446.76157,78.518927 C 453.07499,91.343304 453.36753,92.959846 453.36753,115.02231 C 453.36753,136.24035 452.91461,139.02936 447.76661,149.51259 C 439.11869,167.12288 426.3456,179.96367 408.89892,188.58629 C 395.35312,195.28098 391.91342,196.11457 375.4939,196.68179 C 361.71596,197.15774 354.7057,196.42694 347.1449,193.72648 z "
       id="path2558" />
    <path
       style="fill:#ff0000;stroke:#000000;stroke-width:1.11981189px;stroke-linecap:butt;stroke-linejoin:miter;stroke-opacity:1"
       d="M 462.74032,117.57516 C 623.38835,60.863219 623.38835,60.863219 623.38835,60.863219"
       id="path60"
       inkscape:connector-curvature="0" />
    <text
       xml:space="preserve"
       style="font-style:normal;font-weight:normal;font-size:40px;line-height:1.25;font-family:sans-serif;letter-spacing:0px;word-spacing:0px;fill:#000000;fill-opacity:1;stroke:none"
       x="536.61743"
       y="44.002579"
       id="text64"><tspan
         sodipodi:role="line"
         id="tspan62"
         x="536.61743"
         y="44.002579">Headgear</tspan><tspan
         sodipodi:role="line"
         x="536.61743"
         y="94.002579"
         id="tspan66" /></text>
    <path
       style="fill:none;stroke:#000000;stroke-width:1.17381656px;stroke-linecap:butt;stroke-linejoin:miter;stroke-opacity:1"
       d="m 490.99793,954.08727 c 140.8031,47.03273 140.8031,47.03273 140.8031,47.03273 h -0.50832"
       id="path68"
       inkscape:connector-curvature="0" />
    <text
       xml:space="preserve"
       style="font-style:normal;font-weight:normal;font-size:40px;line-height:1.25;font-family:sans-serif;letter-spacing:0px;word-spacing:0px;fill:#000000;fill-opacity:1;stroke:none"
       x="549.50653"
       y="1037.8877"
       id="text72"><tspan
         sodipodi:role="line"
         id="tspan70"
         x="549.50653"
         y="1037.8877">Footwear</tspan><tspan
         sodipodi:role="line"
         x="549.50653"
         y="1087.8877"
         id="tspan74" /></text>
    <path
       style="fill:none;stroke:#000000;stroke-width:0.92519182px;stroke-linecap:butt;stroke-linejoin:miter;stroke-opacity:1"
       d="M 171.65704,397.42026 C 84.270564,324.58794 84.270564,324.58794 84.270564,324.58794 l 0.377478,-1.67431 -0.566218,1.67431"
       id="path76"
       inkscape:connector-curvature="0" />
    <text
       xml:space="preserve"
       style="font-style:normal;font-weight:normal;font-size:40px;line-height:1.25;font-family:sans-serif;letter-spacing:0px;word-spacing:0px;fill:#000000;fill-opacity:1;stroke:none"
       x="16.805048"
       y="313.72568"
       id="text80"><tspan
         sodipodi:role="line"
         id="tspan78"
         x="16.805048"
         y="313.72568">Armour</tspan><tspan
         sodipodi:role="line"
         x="16.805048"
         y="363.72568"
         id="tspan82" /></text>
    <path
       style="fill:none;stroke:#000000;stroke-width:0.90891141px;stroke-linecap:butt;stroke-linejoin:miter;stroke-opacity:1"
       d="m 568.8946,515.16423 c 91.33524,-50.63528 91.26219,-50.3894 91.26219,-50.3894"
       id="path84"
       inkscape:connector-curvature="0" />
    <text
       xml:space="preserve"
       style="font-style:normal;font-weight:normal;font-size:40px;line-height:1.25;font-family:sans-serif;letter-spacing:0px;word-spacing:0px;fill:#000000;fill-opacity:1;stroke:none"
       x="573.27002"
       y="457.62366"
       id="text88"><tspan
         sodipodi:role="line"
         id="tspan86"
         x="573.27002"
         y="457.62366">Weapon</tspan></text>
  </g>
</svg>
